<svg width="183" height="161" viewBox="0 0 183 161" fill="none" xmlns="http://www.w3.org/2000/svg">
<path d="M148.688 17.1277C148.688 12.5851 150.495 8.22864 153.712 5.01658C156.93 1.80452 161.294 0 165.844 0C170.394 0 174.758 1.80452 177.975 5.01658C181.192 8.22864 183 12.5851 183 17.1277V142.73C183 147.273 181.192 151.63 177.975 154.842C174.758 158.054 170.394 159.858 165.844 159.858C161.294 159.858 156.93 158.054 153.712 154.842C150.495 151.63 148.688 147.273 148.688 142.73V140.287C123.96 126.117 97.3331 119.243 69.6315 116.502L74.2637 147.469C74.5748 149.119 74.5177 150.817 74.0964 152.442C73.6752 154.067 72.9002 155.58 71.8266 156.872C70.753 158.164 69.4072 159.204 67.8852 159.917C66.3631 160.631 64.7022 161 63.0206 161H56.7529C54.5297 161 52.3547 160.353 50.494 159.138C48.6334 157.923 47.1676 156.194 46.2761 154.16L25.1168 114.31L22.8064 114.276C16.7487 114.216 10.9585 111.776 6.68985 107.484C2.42121 103.193 0.0177492 97.3954 0 91.3475L0 68.5106C0.0204135 62.4622 2.41983 56.6638 6.68137 52.3645C10.9429 48.0652 16.7255 45.6091 22.7835 45.5253C32.254 45.3964 41.7218 45.1109 51.1828 44.6689C85.9871 42.9105 121.501 34.9747 148.688 19.5598V17.1277ZM160.125 17.1277V142.73C160.125 144.245 160.728 145.697 161.8 146.768C162.872 147.838 164.327 148.44 165.844 148.44C167.36 148.44 168.815 147.838 169.888 146.768C170.96 145.697 171.562 144.245 171.562 142.73V17.1277C171.562 15.6135 170.96 14.1613 169.888 13.0906C168.815 12.0199 167.36 11.4184 165.844 11.4184C164.327 11.4184 162.872 12.0199 161.8 13.0906C160.728 14.1613 160.125 15.6135 160.125 17.1277ZM148.688 32.5426C121.878 46.3018 89.1096 53.5753 57.1875 55.7562V104.09C59.2463 104.205 61.2936 104.342 63.3294 104.502C92.7009 106.66 121.581 112.997 148.688 127.259V32.5426ZM45.75 103.508V56.35C38.1578 56.6274 30.5629 56.8254 22.9665 56.9438C19.9101 56.9796 16.9898 58.2115 14.8338 60.3746C12.6778 62.5377 11.4583 65.4592 11.4375 68.5106V91.3475C11.4375 97.6277 16.5615 102.789 22.9436 102.869C30.5487 102.958 38.1519 103.171 45.75 103.508ZM38.2356 114.641L56.6385 149.319L56.7529 149.593H63.0206L62.9977 149.433L57.9309 115.566C51.37 115.171 44.8044 114.859 38.2356 114.63V114.641Z" fill="#DF334D"/>
</svg>
