<svg width="184" height="168" viewBox="0 0 184 168" fill="none" xmlns="http://www.w3.org/2000/svg">
<path d="M117.43 35.9993C116.356 37.0729 114.899 37.6761 113.381 37.6761C111.862 37.6761 110.406 37.0729 109.332 35.9993C107.762 34.4236 105.896 33.1745 103.84 32.3242C101.785 31.4739 99.5814 31.0394 97.3571 31.0456C92.661 31.0456 88.4632 32.9297 85.3822 35.9993C84.8505 36.531 84.2192 36.9528 83.5245 37.2406C82.8298 37.5283 82.0852 37.6764 81.3333 37.6764C79.8146 37.6764 78.3582 37.0732 77.2843 35.9993C76.7526 35.4676 76.3309 34.8364 76.0431 34.1417C75.7553 33.447 75.6072 32.7024 75.6072 31.9504C75.6072 30.4318 76.2105 28.9753 77.2843 27.9015C79.9194 25.2646 83.0487 23.1734 86.4931 21.7475C89.9375 20.3216 93.6292 19.5891 97.3571 19.5918C101.085 19.5891 104.777 20.3216 108.221 21.7475C111.665 23.1734 114.795 25.2646 117.43 27.9015C118.503 28.9755 119.107 30.4318 119.107 31.9504C119.107 33.469 118.503 34.9254 117.43 35.9993ZM50.935 30.5301C45.8759 33.4855 41.3004 37.1996 37.368 41.5429L37.3623 41.5487C33.4165 45.908 30.1656 50.8491 27.7239 56.198C25.2173 61.687 23.603 67.541 22.942 73.539C22.8593 74.2866 22.9246 75.0431 23.1342 75.7654C23.3439 76.4877 23.6937 77.1617 24.1638 77.7487C24.6339 78.3358 25.2151 78.8246 25.8741 79.1871C26.533 79.5496 27.257 79.7788 28.0045 79.8615C28.7521 79.9442 29.5086 79.8789 30.2309 79.6693C30.9532 79.4596 31.6272 79.1097 32.2143 78.6396C32.8014 78.1695 33.2901 77.5884 33.6526 76.9294C34.0151 76.2704 34.2443 75.5465 34.327 74.7989C34.8642 70.0109 36.1534 65.3376 38.1468 60.9513C42.0708 52.3571 48.5557 45.1861 56.7134 40.4205C57.3628 40.0411 57.9311 39.5374 58.3859 38.9384C58.8407 38.3393 59.173 37.6566 59.3639 36.9291C59.5548 36.2016 59.6006 35.4436 59.4986 34.6985C59.3966 33.9533 59.1488 33.2355 58.7693 32.5861C58.3899 31.9367 57.8863 31.3684 57.2873 30.9136C56.6882 30.4588 56.0054 30.1265 55.278 29.9356C53.8087 29.55 52.2465 29.7639 50.935 30.5301ZM137.445 94.4937C137.445 92.9748 138.049 91.5182 139.123 90.4442C140.197 89.3702 141.653 88.7668 143.172 88.7668C144.691 88.7668 146.148 89.3702 147.222 90.4442C148.296 91.5182 148.899 92.9748 148.899 94.4937C148.891 99.6604 146.885 104.624 143.3 108.345C139.716 112.066 134.831 114.256 129.668 114.458C130.945 117.086 131.718 120.007 131.718 123.128C131.718 124.647 131.115 126.104 130.041 127.178C128.967 128.252 127.51 128.855 125.991 128.855C124.473 128.855 123.016 128.252 121.942 127.178C120.868 126.104 120.265 124.647 120.265 123.128C120.265 120.85 119.36 118.665 117.749 117.054C116.138 115.443 113.953 114.538 111.674 114.538H76.2707C74.7518 114.538 73.2952 113.934 72.2212 112.86C71.1472 111.786 70.5438 110.33 70.5438 108.811C70.5438 107.292 71.1472 105.835 72.2212 104.761C73.2952 103.687 74.7518 103.084 76.2707 103.084H88.7667C91.0436 103.079 93.226 102.173 94.836 100.563C96.446 98.9529 97.3525 96.7706 97.3571 94.4937C97.3571 92.9748 97.9604 91.5182 99.0344 90.4442C100.108 89.3702 101.565 88.7668 103.084 88.7668C104.603 88.7668 106.059 89.3702 107.133 90.4442C108.207 91.5182 108.811 92.9748 108.811 94.4937C108.811 97.5805 108.055 100.473 106.806 103.084H128.855C131.132 103.079 133.314 102.173 134.924 100.563C136.534 98.9529 137.441 96.7706 137.445 94.4937Z" fill="#DF334D"/>
<path d="M183.26 89.975C183.26 86.3785 183.002 82.8966 182.607 79.5177C177.413 34.745 139.438 0.0114538 93.2852 0H86.2296C38.5992 0.00572688 0.00572688 38.5992 0 86.2296C0 90.6992 0.880337 95.1249 2.59075 99.2542C4.30116 103.384 6.80815 107.136 9.96858 110.296C16.3514 116.679 25.0082 120.265 34.0349 120.265H41.1419C43.068 128.412 47.6868 135.671 54.251 140.868C60.8152 146.064 68.9408 148.894 77.3129 148.899H117.997L135.842 166.744C136.442 167.344 137.207 167.752 138.04 167.918C138.873 168.083 139.736 167.998 140.52 167.673C141.304 167.348 141.975 166.799 142.447 166.093C142.919 165.387 143.171 164.558 143.172 163.709V148.424C151.975 147.326 160.268 143.694 167.044 137.968C173.82 132.243 178.785 124.672 181.336 116.176C182.155 113.438 182.625 110.552 182.922 107.614L182.939 107.568C183.1 107.041 183.26 106.52 183.26 105.947C183.256 105.596 183.241 105.249 183.214 104.905L183.174 104.246C183.178 104.063 183.191 103.886 183.214 103.714C183.245 103.504 183.26 103.294 183.26 103.084V89.975ZM170.363 112.905C168.249 119.994 163.903 126.211 157.972 130.633C152.042 135.054 144.843 137.443 137.445 137.445H77.3129C70.8867 137.442 64.6937 135.038 59.9483 130.705C55.2029 126.371 52.2477 120.422 51.6622 114.022L51.6278 113.656C51.8193 106.218 54.9133 99.1499 60.2484 93.9636C65.5834 88.7773 72.7359 85.8843 80.1763 85.9032C81.6952 85.9032 83.1519 85.2998 84.2258 84.2258C85.2998 83.1519 85.9032 81.6952 85.9032 80.1763C85.9032 78.6575 85.2998 77.2008 84.2258 76.1268C83.1519 75.0528 81.6952 74.4495 80.1763 74.4495C73.4511 74.4492 66.8339 76.141 60.934 79.3688C59.808 76.8385 58.2324 74.5334 56.2838 72.5653C55.21 71.4915 53.7535 70.8882 52.2349 70.8882C50.7162 70.8882 49.2598 71.4915 48.186 72.5653C47.1121 73.6391 46.5089 75.0956 46.5089 76.6142C46.5089 78.1328 47.1121 79.5893 48.186 80.6631C49.8124 82.2953 50.9177 84.3856 51.3358 86.7279C45.5159 92.7776 41.742 100.502 40.5463 108.811H34.0349C31.068 108.815 28.1294 108.233 25.3883 107.098C22.6472 105.963 20.1575 104.297 18.0626 102.196C15.9634 100.101 14.2989 97.6125 13.1648 94.8725C12.0306 92.1324 11.4491 89.1952 11.4538 86.2296C11.4538 65.5613 19.815 46.9032 33.3534 33.3534C40.2865 26.3954 48.5281 20.8782 57.6031 17.1196C66.6781 13.3611 76.4071 11.4355 86.2296 11.4538H93.2852C131.598 11.4423 163.417 38.9428 170.317 75.2455C164.002 69.0867 155.944 65.0217 147.238 63.6027C150.119 58.3226 151.762 52.2578 151.762 45.815C151.762 44.2962 151.159 42.8395 150.085 41.7655C149.011 40.6915 147.554 40.0882 146.035 40.0882C144.517 40.0882 143.06 40.6915 141.986 41.7655C140.912 42.8395 140.309 44.2962 140.309 45.815C140.315 49.2003 139.651 52.5533 138.356 55.6808C137.06 58.8084 135.159 61.6487 132.761 64.038C130.371 66.4361 127.531 68.3377 124.403 69.6331C121.276 70.9286 117.923 71.5923 114.538 71.586C113.019 71.586 111.562 72.1894 110.488 73.2634C109.414 74.3374 108.811 75.794 108.811 77.3129C108.811 78.8318 109.414 80.2884 110.488 81.3624C111.562 82.4364 113.019 83.0398 114.538 83.0398C123.391 83.0451 131.955 79.8799 138.676 74.1173L138.768 74.1459C139.265 74.3173 139.784 74.4195 140.309 74.4495C149.025 74.4495 156.865 77.9658 162.58 83.6755C168.066 89.1663 171.322 96.4951 171.721 104.246C171.64 107.179 171.183 110.089 170.363 112.905Z" fill="#DF334D"/>
</svg>
