<svg width="183" height="126" viewBox="0 0 183 126" fill="none" xmlns="http://www.w3.org/2000/svg">
<path d="M181.801 42.8889L163.556 6.33096C162.883 4.9854 161.953 3.7856 160.818 2.80009C159.683 1.81459 158.365 1.06268 156.94 0.587298C155.514 0.111919 154.009 -0.0776139 152.511 0.029522C151.012 0.136658 149.549 0.538366 148.206 1.2117L130.426 10.1113L92.9706 0.18785C92.0095 -0.0626166 91.0005 -0.0626166 90.0394 0.18785L52.5843 10.1113L34.804 1.2117C33.4605 0.538366 31.9977 0.136658 30.4992 0.029522C29.0007 -0.0776139 27.4958 0.111919 26.0704 0.587298C24.6451 1.06268 23.3272 1.81459 22.192 2.80009C21.0568 3.7856 20.1266 4.9854 19.4545 6.33096L1.20948 42.8818C0.537133 44.2272 0.136017 45.6922 0.0290388 47.1929C-0.0779398 48.6936 0.111315 50.2007 0.585995 51.6282C1.06067 53.0557 1.81148 54.3755 2.79554 55.5123C3.7796 56.6492 4.97763 57.5808 6.32122 58.2539L25.6243 67.9268L65.2957 96.3011C65.8806 96.717 66.5376 97.0205 67.2332 97.1961L112.989 108.652C113.947 108.892 114.951 108.88 115.903 108.617C116.855 108.353 117.723 107.847 118.422 107.148L157.793 67.712L176.682 58.2539C179.393 56.8944 181.455 54.5123 182.413 51.6311C183.372 48.75 183.149 45.6055 181.793 42.8889H181.801ZM142.558 66.7812L117.957 47.0488C116.855 46.1649 115.466 45.7205 114.056 45.8011C112.646 45.8818 111.316 46.4817 110.322 47.4855C97.589 60.3302 83.3977 58.705 74.3467 52.9771L105.26 22.9059H128.002L147.455 61.8624L142.558 66.7812ZM29.6851 11.4502L44.3197 18.7676L26.039 55.3184L11.433 48.0082L29.6851 11.4502ZM112.617 96.745L71.0723 86.349L35.8978 61.1894L55.9158 21.0945L91.505 11.6507L98.5113 13.5051L66.3395 44.7791L66.2823 44.8436C65.0713 46.0564 64.1476 47.5261 63.5795 49.1442C63.0114 50.7623 62.8134 52.4875 63 54.1924C63.1867 55.8974 63.7533 57.5387 64.6579 58.9951C65.5626 60.4514 66.7822 61.6858 68.2269 62.607C82.9259 72.0079 100.663 70.4828 114.633 59.0271L134.401 74.9291L112.617 96.745ZM156.942 55.3112L138.697 18.7962L153.325 11.4502L171.577 48.0082L156.942 55.3112ZM94.2074 121.661C93.8984 122.899 93.1855 123.998 92.1818 124.784C91.178 125.57 89.9409 125.998 88.6667 126C88.1967 126 87.7285 125.943 87.2726 125.828L57.4815 118.368C56.7848 118.195 56.1273 117.892 55.5441 117.473L36.7057 103.998C35.5474 103.087 34.7845 101.764 34.576 100.304C34.3674 98.844 34.7292 97.3597 35.5861 96.1601C36.4429 94.9606 37.7288 94.1383 39.1759 93.8645C40.6229 93.5907 42.1197 93.8864 43.3545 94.6901L61.3064 107.535L90.0751 114.723C91.5464 115.092 92.8112 116.031 93.5915 117.333C94.3718 118.635 94.6036 120.195 94.236 121.668L94.2074 121.661Z" fill="#DF334D"/>
</svg>
