<svg width="183" height="183" viewBox="0 0 183 183" fill="none" xmlns="http://www.w3.org/2000/svg">
<path d="M91.5 0C94.9343 0 98.3198 0.186051 101.656 0.558151C102.851 0.690326 104.008 1.05646 105.06 1.63564C106.113 2.21483 107.042 2.99573 107.793 3.93375C108.544 4.87177 109.103 5.94854 109.438 7.10259C109.773 8.25664 109.877 9.46536 109.745 10.6597C109.613 11.8541 109.247 13.0108 108.668 14.0637C108.088 15.1166 107.308 16.0451 106.369 16.7962C105.431 17.5473 104.355 18.1062 103.201 18.4412C102.047 18.7762 100.838 18.8805 99.6435 18.7483C84.5647 17.0615 69.3343 20.102 56.0591 27.4493C42.7838 34.7966 32.1197 46.0876 25.5419 59.7604C18.9641 73.4333 16.7976 88.8124 19.3421 103.77C21.8866 118.728 29.0164 132.526 39.7452 143.255C50.474 153.984 64.2717 161.113 79.2297 163.658C94.1876 166.202 109.567 164.036 123.24 157.458C136.912 150.88 148.203 140.216 155.551 126.941C162.898 113.666 165.938 98.4353 164.252 83.3565C164.119 82.1621 164.224 80.9534 164.559 79.7993C164.894 78.6453 165.453 77.5685 166.204 76.6305C167.721 74.7361 169.928 73.5218 172.34 73.2549C174.752 72.988 177.172 73.6902 179.066 75.2071C180.004 75.9582 180.785 76.8867 181.364 77.9396C181.944 78.9925 182.31 80.1491 182.442 81.3435C182.808 84.6802 182.994 88.0657 183 91.5C183 142.035 142.035 183 91.5 183C40.9646 183 0 142.035 0 91.5C0 40.9646 40.9646 0 91.5 0ZM91.2072 53.7745C91.8102 56.1236 91.456 58.6159 90.2224 60.7039C88.9888 62.7919 86.9768 64.3048 84.6283 64.9101C78.1764 66.6002 72.5598 70.5801 68.8266 76.107C65.0935 81.634 63.4987 88.3304 64.3401 94.9468C65.1814 101.563 68.4013 107.647 73.3989 112.064C78.3965 116.481 84.8304 118.928 91.5 118.95C97.5875 118.953 103.503 116.931 108.317 113.205C113.13 109.478 116.568 104.257 118.09 98.3625C118.738 96.0599 120.263 94.1029 122.337 92.9107C124.411 91.7185 126.869 91.3858 129.185 91.984C131.501 92.5822 133.491 94.0636 134.728 96.111C135.966 98.1584 136.352 100.609 135.804 102.937C132.997 113.697 126.369 123.067 117.158 129.297C107.947 135.526 96.7828 138.189 85.7516 136.788C74.7203 135.387 64.5765 130.018 57.215 121.683C49.8535 113.349 45.7781 102.62 45.75 91.5C45.7484 81.3562 49.1181 71.4995 55.3293 63.4797C61.5404 55.4598 70.2408 49.7316 80.0625 47.1957C81.2262 46.8957 82.4377 46.828 83.6276 46.9963C84.8176 47.1646 85.9627 47.5657 86.9976 48.1766C88.0325 48.7875 88.9369 49.5963 89.6592 50.5568C90.3815 51.5173 90.9075 52.6107 91.2072 53.7745ZM151.012 1.16205C152.682 1.85451 154.109 3.02624 155.114 4.52934C156.119 6.03243 156.656 7.7995 156.657 9.6075V26.352H173.392C175.202 26.3524 176.971 26.8892 178.475 27.8947C179.979 28.9001 181.152 30.329 181.844 32.0007C182.537 33.6724 182.718 35.5119 182.365 37.2865C182.012 39.0612 181.141 40.6914 179.862 41.971L147.498 74.298C145.782 76.0141 143.455 76.9784 141.029 76.9789H118.95L102.224 93.7143C100.507 95.4312 98.1783 96.3958 95.7502 96.3958C93.3221 96.3958 90.9935 95.4312 89.2765 93.7143C87.5596 91.9974 86.5951 89.6688 86.5951 87.2407C86.5951 84.8126 87.5596 82.484 89.2765 80.767L106.012 64.05V41.9619C106.012 39.5354 106.977 37.2084 108.693 35.4929L141.038 3.13845C142.318 1.85807 143.948 0.985989 145.724 0.632552C147.499 0.279115 149.339 0.4602 151.012 1.1529M138.357 31.6864L124.312 45.75V58.6881H137.25L151.304 44.6428H147.507C145.08 44.6428 142.753 43.6788 141.037 41.9629C139.321 40.2469 138.357 37.9196 138.357 35.4929V31.6864Z" fill="#DF334D"/>
</svg>
